<svg id="eg43tn46ts61" xmlns="http://www.w3.org/2000/svg" xmlns:xlink="http://www.w3.org/1999/xlink" viewBox="0 0 512 512" shape-rendering="geometricPrecision" text-rendering="geometricPrecision"><style><![CDATA[#eg43tn46ts62_to {animation: eg43tn46ts62_to__to 3000ms linear infinite normal forwards}@keyframes eg43tn46ts62_to__to { 0% {transform: translate(256px,192px)} 50% {transform: translate(256px,320px)} 100% {transform: translate(256px,192px)} }#eg43tn46ts62_ts {animation: eg43tn46ts62_ts__ts 3000ms linear infinite normal forwards}@keyframes eg43tn46ts62_ts__ts { 0% {transform: scale(1,1)} 50% {transform: scale(1,1)} 62.666667% {transform: scale(1,0.800000)} 73.333333% {transform: scale(1,1)} 100% {transform: scale(1,1)} }]]></style><g id="eg43tn46ts62_to" transform="translate(256,192)"><g id="eg43tn46ts62_ts" transform="scale(1,1)"><path id="eg43tn46ts62" d="M157.520000,272L194.480000,272L176,218.780000L157.520000,272ZM352,256C338.770000,256,328,266.770000,328,280C328,293.230000,338.770000,304,352,304C365.230000,304,376,293.230000,376,280C376,266.770000,365.230000,256,352,256ZM464,64L48,64C21.500000,64,0,85.500000,0,112L0,400C0,426.500000,21.500000,448,48,448L464,448C490.500000,448,512,426.500000,512,400L512,112C512,85.500000,490.500000,64,464,64ZM250.580000,352L233.640000,352C226.830000,352,220.760000,347.680000,218.520000,341.250000L211.150000,320L140.860000,320L133.480000,341.250000C131.243796,347.687777,125.175099,352.002492,118.360000,352L101.420000,352C90.410000,352,82.690000,341.150000,86.300000,330.750000L140,176.120000C143.353530,166.467825,152.451847,159.998267,162.670000,160L189.330000,160C199.551250,159.998229,208.651145,166.472924,212,176.130000L265.690000,330.750000C269.300000,341.150000,261.580000,352,250.580000,352ZM424,336C424,344.840000,416.840000,352,408,352L392,352C387.150000,352,382.960000,349.730000,380.020000,346.320000C371.400000,349.980000,361.930000,352,352,352C312.300000,352,280,319.700000,280,280C280,240.300000,312.300000,208,352,208C360.460000,208,368.460000,209.730000,376,212.420000L376,176C376,167.160000,383.160000,160,392,160L408,160C416.840000,160,424,167.160000,424,176L424,336Z" transform="translate(-256,-256)" fill="rgb(3,82,70)" stroke="none" stroke-width="1"/></g></g></svg>