<svg id="eycPBUWGFg71" xmlns="http://www.w3.org/2000/svg" xmlns:xlink="http://www.w3.org/1999/xlink" viewBox="0 0 15.926000 15.482000" shape-rendering="geometricPrecision" text-rendering="geometricPrecision"><style><![CDATA[#eycPBUWGFg72_to {animation: eycPBUWGFg72_to__to 3000ms linear infinite normal forwards}@keyframes eycPBUWGFg72_to__to { 0% {transform: translate(7.963000px,5.500000px)} 33.333333% {transform: translate(7.963000px,8.902011px)} 50% {transform: translate(7.963000px,7.240852px)} 100% {transform: translate(7.963000px,5.500000px)}} #eycPBUWGFg72_ts {animation: eycPBUWGFg72_ts__ts 3000ms linear infinite normal forwards}@keyframes eycPBUWGFg72_ts__ts { 0% {transform: scale(0.752103,0.752103)} 33.333333% {transform: scale(0.752103,0.752103)} 50% {transform: scale(0.752103,0.650000)} 66.666667% {transform: scale(0.752103,0.750000)} 100% {transform: scale(0.752103,0.750000)}}]]></style><g id="eycPBUWGFg72_to" transform="translate(7.963000,5.500000)"><g id="eycPBUWGFg72_ts" transform="scale(0.752103,0.752103)"><g id="eycPBUWGFg72" transform="translate(-9.762500,-9.876000)"><path id="eycPBUWGFg73" d="M16.638000,9.876000L13.533000,9.876000C13.410393,9.876000,13.311000,9.776607,13.311000,9.654000C13.311000,9.531393,13.410393,9.432000,13.533000,9.432000L16.638000,9.432000C16.883214,9.432000,17.082000,9.233214,17.082000,8.988000L17.082000,3.888000C17.082000,3.642786,16.883214,3.444000,16.638000,3.444000L2.887000,3.444000C2.641786,3.444000,2.443000,3.642786,2.443000,3.888000L2.443000,8.988000C2.443000,9.105756,2.489778,9.218689,2.573045,9.301955C2.656311,9.385222,2.769244,9.432000,2.887000,9.432000L5.992000,9.432000C6.114607,9.432000,6.214000,9.531393,6.214000,9.654000C6.214000,9.776607,6.114607,9.876000,5.992000,9.876000L2.887000,9.876000C2.651580,9.876000,2.425816,9.782411,2.259442,9.615850C2.093069,9.449289,1.999735,9.223420,2,8.988000L2,3.888000C1.999735,3.652580,2.093069,3.426711,2.259442,3.260150C2.425816,3.093589,2.651580,3,2.887000,3L16.638000,3C16.873247,3,17.098859,3.093452,17.265204,3.259796C17.431548,3.426141,17.525000,3.651753,17.525000,3.887000L17.525000,8.987000C17.525531,9.222593,17.432314,9.448719,17.265912,9.615497C17.099510,9.782275,16.873594,9.876001,16.638000,9.876000Z" fill="rgb(3,82,70)" stroke="rgb(3,82,70)" stroke-width="0.400000" stroke-miterlimit="1"/><path id="eycPBUWGFg74" d="M21.616000,18.440000L19.564000,18.440000C19.484687,18.440000,19.411399,18.397687,19.371742,18.329000C19.332086,18.260313,19.332086,18.175687,19.371742,18.107000C19.411399,18.038313,19.484687,17.996000,19.564000,17.996000L21.394000,17.996000L21.394000,16.444000L10.194000,16.444000L10.194000,18L12.024000,18C12.146607,18,12.246000,18.099393,12.246000,18.222000C12.246000,18.344607,12.146607,18.444000,12.024000,18.444000L9.972000,18.444000C9.913122,18.444000,9.856655,18.420611,9.815022,18.378978C9.773389,18.337345,9.750000,18.280878,9.750000,18.222000L9.750000,16.222000C9.750000,16.099393,9.849393,16,9.972000,16L21.616000,16C21.674878,16,21.731345,16.023389,21.772978,16.065022C21.814611,16.106655,21.838000,16.163122,21.838000,16.222000L21.838000,18.222000C21.835819,18.343042,21.737062,18.440020,21.616000,18.440000Z" transform="matrix(1 0 0 1 -6.03100000000000 -10.11700000000000)" fill="rgb(3,82,70)" stroke="rgb(3,82,70)" stroke-width="0.400000" stroke-miterlimit="1"/><path id="eycPBUWGFg75" d="M26.319000,32.090000L19.665000,32.090000C19.488458,32.090000,19.319161,32.019801,19.194420,31.894873C19.069680,31.769945,18.999735,31.600542,19,31.424000L19,21.224000C18.999466,21.164776,19.022620,21.107794,19.064311,21.065728C19.106002,21.023661,19.162774,20.999998,19.222000,21L26.763000,21C26.821878,21,26.878345,21.023389,26.919978,21.065022C26.961611,21.106655,26.985000,21.163122,26.985000,21.222000L26.985000,31.422000C26.985799,31.599062,26.915952,31.769131,26.790937,31.894521C26.665922,32.019912,26.496063,32.090268,26.319000,32.090000ZM19.444000,21.444000L19.444000,31.425000C19.444000,31.483878,19.467389,31.540345,19.509022,31.581978C19.550655,31.623611,19.607122,31.647000,19.666000,31.647000L26.320000,31.647000C26.378878,31.647000,26.435345,31.623611,26.476978,31.581978C26.518611,31.540345,26.542000,31.483878,26.542000,31.425000L26.542000,21.444000Z" transform="matrix(1 0 0 1 -13.22900000000000 -14.00800000000000)" fill="rgb(3,82,70)" stroke="rgb(3,82,70)" stroke-width="0.400000" stroke-miterlimit="1"/><path id="eycPBUWGFg76" d="M26.540000,32.090000L25.322000,32.090000C25.263122,32.090000,25.206655,32.066611,25.165022,32.024978C25.123389,31.983345,25.100000,31.926878,25.100000,31.868000L25.100000,21.222000C25.100000,21.163122,25.123389,21.106655,25.165022,21.065022C25.206655,21.023389,25.263122,21,25.322000,21L26.540000,21C26.598878,21,26.655345,21.023389,26.696978,21.065022C26.738611,21.106655,26.762000,21.163122,26.762000,21.222000L26.762000,31.868000C26.762000,31.926878,26.738611,31.983345,26.696978,32.024978C26.655345,32.066611,26.598878,32.090000,26.540000,32.090000ZM25.540000,31.646000L26.315000,31.646000L26.315000,21.446000L25.540000,21.446000Z" transform="matrix(1 0 0 1 -17.97700000000000 -14.00800000000000)" fill="rgb(3,82,70)" stroke="rgb(3,82,70)" stroke-width="0.400000" stroke-miterlimit="1"/><path id="eycPBUWGFg77" d="M41.540000,51.300000C41.481122,51.300000,41.424655,51.276611,41.383022,51.234978C41.341389,51.193345,41.318000,51.136878,41.318000,51.078000L41.318000,47.839000C41.318000,47.716393,41.417393,47.617000,41.540000,47.617000C41.662607,47.617000,41.762000,47.716393,41.762000,47.839000L41.762000,51.083000C41.759282,51.203650,41.660681,51.300031,41.540000,51.300000Z" transform="matrix(1 0 0 1 -30.59700000000000 -34.72100000000000)" fill="rgb(3,82,70)" stroke="rgb(3,82,70)" stroke-width="0.400000" stroke-miterlimit="1"/><path id="eycPBUWGFg78" d="M46.449000,55.363000C46.390122,55.363000,46.333655,55.339611,46.292022,55.297978C46.250389,55.256345,46.227000,55.199878,46.227000,55.141000L46.227000,53.055000C46.227000,52.932393,46.326393,52.833000,46.449000,52.833000C46.571607,52.833000,46.671000,52.932393,46.671000,53.055000L46.671000,55.142000C46.670449,55.264217,46.571218,55.363001,46.449000,55.363000Z" transform="matrix(1 0 0 1 -34.41800000000000 -38.78000000000000)" fill="rgb(3,82,70)" stroke="rgb(3,82,70)" stroke-width="0.400000" stroke-miterlimit="1"/></g></g></g></svg>