<svg xmlns="http://www.w3.org/2000/svg" width="15.926" height="15.482" viewBox="0 0 15.926 15.482">
    <defs>
        <style>
            .cls-1{fill:#33332e;stroke:#33332e;stroke-width:.4px}
        </style>
    </defs>
    <g id="atm-machine" transform="translate(-1.8 -2.8)">
        <path id="Path_1238" d="M16.638 9.876h-3.105a.222.222 0 1 1 0-.444h3.105a.444.444 0 0 0 .444-.444v-5.1a.444.444 0 0 0-.444-.444H2.887a.444.444 0 0 0-.444.444v5.1a.444.444 0 0 0 .444.444h3.105a.222.222 0 0 1 0 .444H2.887A.887.887 0 0 1 2 8.988v-5.1A.887.887 0 0 1 2.887 3h13.751a.887.887 0 0 1 .887.887v5.1a.887.887 0 0 1-.887.889z" class="cls-1"/>
        <path id="Path_1239" d="M21.616 18.44h-2.052a.222.222 0 1 1 0-.444h1.83v-1.552h-11.2V18h1.83a.222.222 0 0 1 0 .444H9.972a.222.222 0 0 1-.222-.222v-2A.222.222 0 0 1 9.972 16h11.644a.222.222 0 0 1 .222.222v2a.222.222 0 0 1-.222.218z" class="cls-1" transform="translate(-6.031 -10.117)"/>
        <path id="Path_1240" d="M26.319 32.09h-6.654a.665.665 0 0 1-.665-.666v-10.2a.222.222 0 0 1 .222-.224h7.541a.222.222 0 0 1 .222.222v10.2a.665.665 0 0 1-.666.668zm-6.875-10.646v9.981a.222.222 0 0 0 .222.222h6.654a.222.222 0 0 0 .222-.222v-9.981z" class="cls-1" transform="translate(-13.229 -14.008)"/>
        <path id="Path_1241" d="M26.54 32.09h-1.218a.222.222 0 0 1-.222-.222V21.222a.222.222 0 0 1 .222-.222h1.218a.222.222 0 0 1 .222.222v10.646a.222.222 0 0 1-.222.222zm-1-.444h.775v-10.2h-.775z" class="cls-1" transform="translate(-17.977 -14.008)"/>
        <path id="Path_1242" d="M41.54 51.3a.222.222 0 0 1-.222-.222v-3.239a.222.222 0 0 1 .444 0v3.244a.222.222 0 0 1-.222.217z" class="cls-1" transform="translate(-30.597 -34.721)"/>
        <path id="Path_1243" d="M46.449 55.363a.222.222 0 0 1-.222-.222v-2.086a.222.222 0 1 1 .444 0v2.087a.222.222 0 0 1-.222.221z" class="cls-1" transform="translate(-34.418 -38.78)"/>
    </g>
</svg>
