<svg id="ekj4eceyz18s1" xmlns="http://www.w3.org/2000/svg" xmlns:xlink="http://www.w3.org/1999/xlink" viewBox="0 0 24 24" shape-rendering="geometricPrecision" text-rendering="geometricPrecision"><style><![CDATA[#ekj4eceyz18s2_to {animation: ekj4eceyz18s2_to__to 3000ms linear infinite normal forwards}@keyframes ekj4eceyz18s2_to__to { 0% {transform: translate(12px,8.666666px)} 50% {transform: translate(12px,15.478261px)} 100% {transform: translate(12px,8.811594px)} }#ekj4eceyz18s2_ts {animation: ekj4eceyz18s2_ts__ts 3000ms linear infinite normal forwards}@keyframes ekj4eceyz18s2_ts__ts { 0% {transform: scale(1,1)} 33.333333% {transform: scale(1,1)} 50% {transform: scale(1,0.800000)} 66.666667% {transform: scale(1,1)} 100% {transform: scale(1,1)} }]]></style><g id="ekj4eceyz18s2_to" transform="translate(12,8.666666)"><g id="ekj4eceyz18s2_ts" transform="scale(1,1)"><g id="ekj4eceyz18s2" transform="translate(-12,-12)"><path id="ekj4eceyz18s3" d="M5.500000,9.500000C4.948000,9.500000,4.500000,9.949000,4.500000,10.500000L4.500000,11.750000L6.500000,11.750000L6.500000,10.500000C6.500000,9.949000,6.052000,9.500000,5.500000,9.500000Z" fill="rgb(3,82,70)" stroke="none" stroke-width="1"/><g id="ekj4eceyz18s4"><path id="ekj4eceyz18s5" d="M21.250000,4L2.750000,4C1.233000,4,0,5.233000,0,6.750000L0,17.250000C0,18.767000,1.233000,20,2.750000,20L21.250000,20C22.767000,20,24,18.767000,24,17.250000L24,6.750000C24,5.233000,22.767000,4,21.250000,4ZM8,15.250000C8,15.664000,7.664000,16,7.250000,16C6.836000,16,6.500000,15.664000,6.500000,15.250000L6.500000,13.250000L4.500000,13.250000L4.500000,15.250000C4.500000,15.664000,4.164000,16,3.750000,16C3.336000,16,3,15.664000,3,15.250000L3,10.500000C3,9.122000,4.121000,8,5.500000,8C6.879000,8,8,9.122000,8,10.500000ZM13.250000,9.500000L12.250000,9.500000L12.250000,15.250000C12.250000,15.664000,11.914000,16,11.500000,16C11.086000,16,10.750000,15.664000,10.750000,15.250000L10.750000,9.500000L9.750000,9.500000C9.336000,9.500000,9,9.164000,9,8.750000C9,8.336000,9.336000,8,9.750000,8L13.250000,8C13.664000,8,14,8.336000,14,8.750000C14,9.164000,13.664000,9.500000,13.250000,9.500000ZM21,15.250000C21,15.664000,20.664000,16,20.250000,16C19.836000,16,19.500000,15.664000,19.500000,15.250000L19.500000,11.574000L18.901000,12.622000C18.633000,13.090000,17.866000,13.090000,17.598000,12.622000L17,11.574000L17,15.250000C17,15.664000,16.664000,16,16.250000,16C15.836000,16,15.500000,15.664000,15.500000,15.250000L15.500000,8.750000C15.500000,8.410000,15.729000,8.112000,16.058000,8.025000C16.384000,7.939000,16.733000,8.083000,16.902000,8.378000L18.251000,10.738000L19.600000,8.378000C19.769000,8.083000,20.116000,7.939000,20.444000,8.025000C20.771000,8.112000,21,8.410000,21,8.750000Z" fill="rgb(3,82,70)" stroke="none" stroke-width="1"/></g></g></g></g></svg>