<svg id="ezvu4r6cryh1" xmlns="http://www.w3.org/2000/svg" xmlns:xlink="http://www.w3.org/1999/xlink" viewBox="0 0 640 512" shape-rendering="geometricPrecision" text-rendering="geometricPrecision"><style><![CDATA[#ezvu4r6cryh2_to {animation: ezvu4r6cryh2_to__to 3000ms linear infinite normal forwards}@keyframes ezvu4r6cryh2_to__to { 0% {transform: translate(320px,198.338165px)} 33.333333% {transform: translate(320px,313.661836px)} 50% {transform: translate(320px,313.661836px)} 100% {transform: translate(320px,198.338165px)} }#ezvu4r6cryh2_ts {animation: ezvu4r6cryh2_ts__ts 3000ms linear infinite normal forwards}@keyframes ezvu4r6cryh2_ts__ts { 0% {transform: scale(1,1)} 33.333333% {transform: scale(1,1)} 50% {transform: scale(1,0.800000)} 66.666667% {transform: scale(1,1)} 100% {transform: scale(1,1)} }]]></style><g id="ezvu4r6cryh2_to" transform="translate(320,198.338165)"><g id="ezvu4r6cryh2_ts" transform="scale(1,1)"><path id="ezvu4r6cryh2" d="M549.328502,206.415459L443.961353,206.415459L443.961353,76.256039C443.961353,65.982742,435.640447,57.661836,425.367150,57.661836L313.801932,57.661836C303.528635,57.661836,295.207729,65.982742,295.207729,76.256039L295.207729,132.038647L245.623188,132.038647L245.623188,70.057971C245.623188,63.209106,240.075918,57.661836,233.227053,57.661836L220.830918,57.661836C213.982053,57.661836,208.434783,63.209106,208.434783,70.057971L208.434783,132.038647L158.850242,132.038647L158.850242,70.057971C158.850242,63.209106,153.302971,57.661836,146.454106,57.661836L134.057971,57.661836C127.209106,57.661836,121.661836,63.209106,121.661836,70.057971L121.661836,132.038647L90.671498,132.038647C80.398201,132.038647,72.077295,140.359553,72.077295,150.632850L72.077295,429.545894C72.077295,443.235875,83.179584,454.338164,96.869565,454.338164L543.130435,454.338164C556.820416,454.338164,567.922705,443.235875,567.922705,429.545894L567.922705,225.009662C567.922705,214.736365,559.594052,206.415459,549.328502,206.415459ZM171.246377,370.664251C171.246377,375.800900,167.085924,379.961353,161.949275,379.961353L130.958937,379.961353C125.822289,379.961353,121.661836,375.800900,121.661836,370.664251L121.661836,339.673913C121.661836,334.537264,125.822289,330.376812,130.958937,330.376812L161.949275,330.376812C167.085924,330.376812,171.246377,334.537264,171.246377,339.673913L171.246377,370.664251ZM171.246377,296.287440C171.246377,301.424088,167.085924,305.584541,161.949275,305.584541L130.958937,305.584541C125.822289,305.584541,121.661836,301.424088,121.661836,296.287440L121.661836,265.297101C121.661836,260.160453,125.822289,256,130.958937,256L161.949275,256C167.085924,256,171.246377,260.160453,171.246377,265.297101L171.246377,296.287440ZM171.246377,221.910628C171.246377,227.047277,167.085924,231.207729,161.949275,231.207729L130.958937,231.207729C125.822289,231.207729,121.661836,227.047277,121.661836,221.910628L121.661836,190.920290C121.661836,185.783641,125.822289,181.623188,130.958937,181.623188L161.949275,181.623188C167.085924,181.623188,171.246377,185.783641,171.246377,190.920290L171.246377,221.910628ZM270.415459,370.664251C270.415459,375.800900,266.255006,379.961353,261.118358,379.961353L230.128019,379.961353C224.991371,379.961353,220.830918,375.800900,220.830918,370.664251L220.830918,339.673913C220.830918,334.537264,224.991371,330.376812,230.128019,330.376812L261.118358,330.376812C266.255006,330.376812,270.415459,334.537264,270.415459,339.673913L270.415459,370.664251ZM270.415459,296.287440C270.415459,301.424088,266.255006,305.584541,261.118358,305.584541L230.128019,305.584541C224.991371,305.584541,220.830918,301.424088,220.830918,296.287440L220.830918,265.297101C220.830918,260.160453,224.991371,256,230.128019,256L261.118358,256C266.255006,256,270.415459,260.160453,270.415459,265.297101L270.415459,296.287440ZM270.415459,221.910628C270.415459,227.047277,266.255006,231.207729,261.118358,231.207729L230.128019,231.207729C224.991371,231.207729,220.830918,227.047277,220.830918,221.910628L220.830918,190.920290C220.830918,185.783641,224.991371,181.623188,230.128019,181.623188L261.118358,181.623188C266.255006,181.623188,270.415459,185.783641,270.415459,190.920290L270.415459,221.910628ZM394.376812,296.287440C394.376812,301.424088,390.216359,305.584541,385.079710,305.584541L354.089372,305.584541C348.952723,305.584541,344.792271,301.424088,344.792271,296.287440L344.792271,265.297101C344.792271,260.160453,348.952723,256,354.089372,256L385.079710,256C390.216359,256,394.376812,260.160453,394.376812,265.297101L394.376812,296.287440ZM394.376812,221.910628C394.376812,227.047277,390.216359,231.207729,385.079710,231.207729L354.089372,231.207729C348.952723,231.207729,344.792271,227.047277,344.792271,221.910628L344.792271,190.920290C344.792271,185.783641,348.952723,181.623188,354.089372,181.623188L385.079710,181.623188C390.216359,181.623188,394.376812,185.783641,394.376812,190.920290L394.376812,221.910628ZM394.376812,147.533817C394.376812,152.670465,390.216359,156.830918,385.079710,156.830918L354.089372,156.830918C348.952723,156.830918,344.792271,152.670465,344.792271,147.533817L344.792271,116.543478C344.792271,111.406830,348.952723,107.246377,354.089372,107.246377L385.079710,107.246377C390.216359,107.246377,394.376812,111.406830,394.376812,116.543478L394.376812,147.533817ZM518.338164,370.664251C518.338164,375.800900,514.177711,379.961353,509.041063,379.961353L478.050725,379.961353C472.914076,379.961353,468.753623,375.800900,468.753623,370.664251L468.753623,339.673913C468.753623,334.537264,472.914076,330.376812,478.050725,330.376812L509.041063,330.376812C514.177711,330.376812,518.338164,334.537264,518.338164,339.673913L518.338164,370.664251ZM518.338164,296.287440C518.338164,301.424088,514.177711,305.584541,509.041063,305.584541L478.050725,305.584541C472.914076,305.584541,468.753623,301.424088,468.753623,296.287440L468.753623,265.297101C468.753623,260.160453,472.914076,256,478.050725,256L509.041063,256C514.177711,256,518.338164,260.160453,518.338164,265.297101L518.338164,296.287440Z" transform="translate(-320,-256)" fill="rgb(3,82,70)" stroke="none" stroke-width="1"/></g></g></svg>