<svg id="em8yuyu9k8p81" xmlns="http://www.w3.org/2000/svg" xmlns:xlink="http://www.w3.org/1999/xlink" viewBox="0 0 512 512" shape-rendering="geometricPrecision" text-rendering="geometricPrecision"><style><![CDATA[#em8yuyu9k8p82_to {animation: em8yuyu9k8p82_to__to 3000ms linear infinite normal forwards}@keyframes em8yuyu9k8p82_to__to { 0% {transform: translate(256px,193.159421px)} 50% {transform: translate(256px,318.840579px)} 100% {transform: translate(256px,193.159420px)} }#em8yuyu9k8p82_ts {animation: em8yuyu9k8p82_ts__ts 3000ms linear infinite normal forwards}@keyframes em8yuyu9k8p82_ts__ts { 0% {transform: scale(1,1)} 50% {transform: scale(1,1)} 60% {transform: scale(1,0.800000)} 70% {transform: scale(1,1)} 100% {transform: scale(1,1)} }]]></style><g id="em8yuyu9k8p82_to" transform="translate(256,193.159421)"><g id="em8yuyu9k8p82_ts" transform="scale(1,1)"><path id="em8yuyu9k8p82" d="M437.086957,328.434783L425.014493,328.434783L425.014493,243.927536C425.014493,237.287681,419.581884,231.855072,412.942029,231.855072L400.869565,231.855072L400.869565,171.492754C400.869565,164.852898,395.436957,159.420290,388.797102,159.420290L376.724638,159.420290L376.724638,74.913043C376.724638,68.273188,371.292029,62.840579,364.652174,62.840579C358.012319,62.840579,352.579710,68.273188,352.579710,74.913043L352.579710,86.985507L304.289855,86.985507L304.289855,74.913043C304.289855,68.273188,298.857246,62.840579,292.217391,62.840579C285.577536,62.840579,280.144928,68.273188,280.144928,74.913043L280.144928,86.985507L231.855072,86.985507L231.855072,74.913043C231.855072,68.273188,226.422464,62.840579,219.782609,62.840579C213.142754,62.840579,207.710145,68.273188,207.710145,74.913043L207.710145,86.985507L159.420290,86.985507L159.420290,74.913043C159.420290,68.273188,153.987681,62.840579,147.347826,62.840579C140.707971,62.840579,135.275362,68.273188,135.275362,74.913043L135.275362,159.420290L123.202898,159.420290C116.563043,159.420290,111.130435,164.852898,111.130435,171.492754L111.130435,231.855072L99.057971,231.855072C92.418116,231.855072,86.985507,237.287681,86.985507,243.927536L86.985507,328.434783L74.913043,328.434783C68.273188,328.434783,62.840579,333.867391,62.840579,340.507246L62.840579,437.086957C62.840579,443.726812,68.273188,449.159420,74.913043,449.159420L135.275362,449.159420L135.275362,328.434783L159.420290,328.434783L159.420290,231.855072L183.565217,231.855072L183.565217,159.420290L207.710145,159.420290L207.710145,231.855072L183.565217,231.855072L183.565217,328.434783L159.420290,328.434783L159.420290,449.159420L219.782609,449.159420L219.782609,388.797102C219.782609,382.157247,225.215217,376.724638,231.855072,376.724638L280.144928,376.724638C286.784783,376.724638,292.217391,382.157247,292.217391,388.797102L292.217391,449.159420L352.579710,449.159420L352.579710,328.434783L328.434783,328.434783L328.434783,231.855072L304.289855,231.855072L304.289855,159.420290L328.434783,159.420290L328.434783,231.855072L352.579710,231.855072L352.579710,328.434783L376.724638,328.434783L376.724638,449.159420L437.086957,449.159420C443.726812,449.159420,449.159420,443.726812,449.159420,437.086957L449.159420,340.507246C449.159420,333.867391,443.726812,328.434783,437.086957,328.434783ZM237.891304,195.637681C237.891304,188.997826,243.323913,183.565217,249.963768,183.565217L262.036232,183.565217C268.676087,183.565217,274.108696,188.997826,274.108696,195.637681L274.108696,231.855072L237.891304,231.855072ZM280.144928,328.434783L231.855072,328.434783L231.855072,280.144928C231.855072,273.505072,237.287681,268.072464,243.927536,268.072464L268.072464,268.072464C274.712319,268.072464,280.144928,273.505072,280.144928,280.144928Z" transform="translate(-256,-256)" fill="rgb(3,82,70)" stroke="none" stroke-width="1"/></g></g></svg>