<svg xmlns="http://www.w3.org/2000/svg" width="10.604" height="15.082" viewBox="0 0 10.604 15.082">
    <defs>
        <style>
            .cls-1{fill:#33332e}
        </style>
    </defs>
    <g id="google-maps" transform="translate(0)">
        <g id="Group_2129" transform="translate(0)">
            <g id="Google_Maps_2_" transform="translate(0.283 4.816)">
                <g id="Group_2127">
                    <path id="Path_1244" d="M91.105 166.593l-1.619 2.5-1.545.661a10.4 10.4 0 0 1-2.342-3.844l.925-1.72 1.488-.692a2.927 2.927 0 0 0-.044.486 2.659 2.659 0 0 0 2.651 2.651 2.927 2.927 0 0 0 .486-.042z" class="cls-1" transform="translate(-85.6 -163.5)"/>
                </g>
            </g>
            <path id="Path_1245" d="M242.593 17.141a2.893 2.893 0 0 0 .044-.483 2.659 2.659 0 0 0-2.648-2.651 2.923 2.923 0 0 0-.486.044l2.351-2.351a5.289 5.289 0 0 1 3.093 3.093l-2.351 2.351z" class="cls-1" transform="translate(-234.684 -11.355)"/>
            <path id="Path_1246" d="M260.987 14.793l-.8 1.57-1.546.781a2.891 2.891 0 0 0 .044-.483 2.659 2.659 0 0 0-2.648-2.651v-.443l.529-1.177 1.334-.686a5.289 5.289 0 0 1 3.087 3.089z" class="cls-1" transform="translate(-250.727 -11.355)"/>
            <g id="Group_2128" transform="translate(2.625 3.438)">
                <path id="Path_1247" d="M172.733 116.7l-2.351 2.351a2.678 2.678 0 0 1-2.121 2.121l-2.559 2.559-.6.6.424.477c.972 1.1 1.812 2.118 1.812 3.09a.442.442 0 1 0 .884 0c0-.972.84-1.985 1.812-3.09 1.361-1.529 3.049-3.438 3.049-6.248a5.063 5.063 0 0 0-.35-1.86z" class="cls-1" transform="translate(-165.098 -116.7)"/>
                <path id="Path_1248" d="M260.988 116.7l-2.351 2.351a2.678 2.678 0 0 1-2.121 2.121l-.485.485v6.688a.437.437 0 0 0 .441-.442c0-.972.84-1.985 1.812-3.09 1.361-1.529 3.049-3.438 3.049-6.248a5.063 5.063 0 0 0-.345-1.865z" class="cls-1" transform="translate(-253.352 -116.7)"/>
            </g>
            <g id="Google_Maps_3_" transform="translate(5.303 7.909)">
                <path id="Path_1249" d="M256.031 268.985l.485-.485a2.935 2.935 0 0 1-.485.044z" class="cls-1" transform="translate(-256.031 -268.5)"/>
            </g>
            <path id="Path_1250" d="M134.411.345l-2.35 2.355a2.682 2.682 0 0 0-1.387.734l-1.367-.571-.507-1.3A5.253 5.253 0 0 1 132.547 0a5.063 5.063 0 0 1 1.864.345z" class="cls-1" transform="translate(-127.245 0)"/>
            <path id="Path_1251" d="M256.031 2.211l1.864-1.863A5.063 5.063 0 0 0 256.031 0v2.211z" class="cls-1" transform="translate(-250.728 -0.003)"/>
            <path id="Path_1252" d="M79.429 54.673a2.682 2.682 0 0 0-.733 1.387l-2.412 2.413A6.671 6.671 0 0 1 76 56.547a5.253 5.253 0 0 1 1.555-3.747z" class="cls-1" transform="translate(-76 -51.245)"/>
        </g>
    </g>
</svg>
