<svg id="egplmig1rqlm1" xmlns="http://www.w3.org/2000/svg" xmlns:xlink="http://www.w3.org/1999/xlink" viewBox="0 0 512 512" shape-rendering="geometricPrecision" text-rendering="geometricPrecision"><style><![CDATA[#egplmig1rqlm2_to {animation: egplmig1rqlm2_to__to 3000ms linear infinite normal forwards}@keyframes egplmig1rqlm2_to__to { 0% {transform: translate(226.717049px,210.069786px)} 50% {transform: translate(226.717049px,346.999962px)} 100% {transform: translate(226.717049px,210.069786px)} }#egplmig1rqlm2_ts {animation: egplmig1rqlm2_ts__ts 3000ms linear infinite normal forwards}@keyframes egplmig1rqlm2_ts__ts { 0% {transform: scale(1,1)} 50% {transform: scale(1,1)} 60.333333% {transform: scale(1,0.900000)} 70% {transform: scale(1,1)} 100% {transform: scale(1,1)} }]]></style><g id="egplmig1rqlm2_to" transform="translate(226.717049,210.069786)"><g id="egplmig1rqlm2_ts" transform="scale(1,1)"><g id="egplmig1rqlm2" transform="translate(-256,-256.000008)"><path id="egplmig1rqlm3" d="M500.937420,181L475.572400,181L440.436171,242.794157C434.558991,253.173329,423.539924,259.647109,411.699277,259.647109C399.858629,259.647109,388.839562,253.173329,382.940994,242.749965L347.821728,181L245.760580,181L245.760580,293.353013L512,293.353013L512,192.235301C512,186.025176,507.052077,181,500.937420,181Z" transform="matrix(1 0 0 1 -33.50000000000000 0)" fill="rgb(3,82,70)" stroke="none" stroke-width="1"/><path id="egplmig1rqlm4" d="M183.391154,300.637462L183.391154,181L160.748532,181L160.748532,300.637462C160.748532,306.649063,155.684887,311.513595,149.427221,311.513595L92.065911,311.513595L92.065911,333.265861L375.853445,333.265861C382.111111,333.265861,387.174756,338.130393,387.174756,344.141994L387.174756,421L409.817379,421L409.817379,344.141994C409.817379,338.130393,414.881024,333.265861,421.138690,333.265861L478.500000,333.265861L478.500000,311.513595L194.712466,311.513595C188.454800,311.513595,183.391154,306.649063,183.391154,300.637462Z" fill="rgb(3,82,70)" stroke="none" stroke-width="1"/><path id="egplmig1rqlm5" d="M458.775362,494.173913L498.911974,494.173913C506.146162,494.173913,512,488.779146,512,482.112279L512,421L458.775362,421Z" transform="matrix(1 0 0 1 -33.50000000000000 -73.17391300000003)" fill="rgb(3,82,70)" stroke="none" stroke-width="1"/><path id="egplmig1rqlm6" d="M61,181L26.545076,181C20.334950,181,15.309775,186.025176,15.309775,192.235301L15.309775,293.353013L61,293.353013Z" transform="matrix(1 0 0 1 76.75613622000000 0)" fill="rgb(3,82,70)" stroke="none" stroke-width="1"/><path id="egplmig1rqlm7" d="M99.841925,489.723072L364.384692,489.723072L364.384692,416.549159L88.373308,416.549159L88.373308,477.661438C88.373308,484.328305,93.502838,489.723072,99.841925,489.723072Z" transform="matrix(1 0 0 1 3.69260309000006 -68.72307202999997)" fill="rgb(3,82,70)" stroke="none" stroke-width="1"/><circle id="egplmig1rqlm8" r="15" transform="matrix(1 0 0 1 376 103)" fill="rgb(3,82,70)" stroke="none" stroke-width="1"/><path id="egplmig1rqlm9" d="M367.678253,205.261004C369.387612,208.238598,372.562046,210.069780,376,210.069780C379.437954,210.069780,382.611747,208.238598,384.321747,205.261004L426.004219,133.091532C431.038046,124.366489,433.705314,114.401422,433.705314,104.276704C433.705314,72.456071,407.820634,45.930220,376,45.930220C344.179366,45.930220,318.294686,72.456071,318.294686,104.276704C318.294686,114.401422,320.961954,124.366489,325.996422,133.091532ZM376,75.424047C391.909996,75.424047,404.852657,88.366708,404.852657,104.276704C404.852657,120.186700,391.909996,133.129361,376,133.129361C360.090004,133.129361,347.147343,120.186700,347.147343,104.276704C347.147343,88.366708,360.090004,75.424047,376,75.424047Z" fill="rgb(3,82,70)" stroke="none" stroke-width="1"/></g></g></g></svg>