<svg id="ekj5blb2ax9i1" xmlns="http://www.w3.org/2000/svg" xmlns:xlink="http://www.w3.org/1999/xlink" viewBox="0 0 100 100" shape-rendering="geometricPrecision" text-rendering="geometricPrecision"><style><![CDATA[#ekj5blb2ax9i3_to {animation: ekj5blb2ax9i3_to__to 2500ms linear infinite normal forwards}@keyframes ekj5blb2ax9i3_to__to { 0% {transform: translate(119.047619px,92.134901px)} 40% {transform: translate(119.047619px,150.722242px)} 100% {transform: translate(119.047619px,92.134901px)} }#ekj5blb2ax9i3_ts {animation: ekj5blb2ax9i3_ts__ts 2500ms linear infinite normal forwards}@keyframes ekj5blb2ax9i3_ts__ts { 0% {transform: scale(1,1)} 40% {transform: scale(1,1)} 52% {transform: scale(1,0.500000)} 64% {transform: scale(1,1)} 100% {transform: scale(1,1)} }]]></style><g id="ekj5blb2ax9i2" transform="matrix(0.42000000000000 0 0 0.42000000000000 -0.00000000000001 -0.00000000000001)"><g id="ekj5blb2ax9i3_to" transform="translate(119.047619,92.134901)"><g id="ekj5blb2ax9i3_ts" transform="scale(1,1)"><path id="ekj5blb2ax9i3" d="M118.785193,31.390360C118.785193,-8.272345,85.396814,-40.092142,45.061860,-37.179062C11.225316,-34.938231,-16.336903,-7.376012,-18.577734,26.460532C-21.042648,59.400745,0.245245,88.083378,29.824211,97.046701C34.305872,98.391200,37.667119,101.752446,39.235700,106.234108L49.095356,136.709406C49.319439,137.605738,50.663937,137.605738,50.888020,136.709406L60.747676,106.234108C62.092174,101.752446,65.677503,98.391200,70.159165,97.046701C98.169549,88.531545,118.785193,62.313825,118.785193,31.390360ZM49.991688,60.745243C33.633623,60.745243,20.412722,47.524341,20.412722,31.166277C20.412722,14.808212,33.633623,1.587311,49.991688,1.587311C66.349753,1.587311,79.570654,14.808212,79.570654,31.166277C79.570654,47.748425,66.349753,60.745243,49.991688,60.745243Z" transform="translate(-50.006699,-50.008659)" fill="rgb(28,76,84)" stroke="rgb(255,255,255)" stroke-width="10" stroke-miterlimit="10"/></g></g></g></svg>