<svg id="ea3efjazjjko1" xmlns="http://www.w3.org/2000/svg" xmlns:xlink="http://www.w3.org/1999/xlink" viewBox="0 0 640 512" shape-rendering="geometricPrecision" text-rendering="geometricPrecision"><style><![CDATA[#ea3efjazjjko2_to {animation: ea3efjazjjko2_to__to 3000ms linear infinite normal forwards}@keyframes ea3efjazjjko2_to__to { 0% {transform: translate(320px,202.743832px)} 50% {transform: translate(320px,349.805237px)} 100% {transform: translate(320px,202.743832px)} }#ea3efjazjjko2_ts {animation: ea3efjazjjko2_ts__ts 3000ms linear infinite normal forwards}@keyframes ea3efjazjjko2_ts__ts { 0% {transform: scale(1,1)} 33.333333% {transform: scale(1,1)} 50% {transform: scale(1,0.800000)} 66.666667% {transform: scale(1,1)} 100% {transform: scale(1,1)} }]]></style><g id="ea3efjazjjko2_to" transform="translate(320,202.743832)"><g id="ea3efjazjjko2_ts" transform="scale(1,1)"><path id="ea3efjazjjko2" d="M186.109048,205.313348L212.822297,205.313348C221.541919,205.313348,227.560914,196.736281,224.591015,188.539360C220.686588,177.784367,218.611619,166.379956,218.611619,154.627077C218.611619,142.874198,220.686588,131.469787,224.591015,120.714794C227.568834,112.517874,221.541919,103.940807,212.822297,103.940807L186.109048,103.940807C180.557317,103.940807,175.449092,107.496765,173.904744,112.834663C170.031997,126.282364,167.941188,140.276527,167.941188,154.627077C167.941188,168.977628,170.031997,182.971790,173.912664,196.411572C175.449092,201.749470,180.557317,205.313348,186.109048,205.313348ZM137.782857,71.739185C142.249584,63.328432,136.238509,53.254536,126.726914,53.254536L98.746509,53.254536C93.780838,53.254536,89.131957,56.097719,87.072827,60.627804C74.013192,89.320985,66.568646,121.087022,66.568646,154.627077C66.568646,174.228409,69.039602,208.742591,87.706405,248.760986C89.781375,253.219794,94.374818,255.999619,99.277131,255.999619L126.869469,255.999619C136.388984,255.999619,142.400059,245.909883,137.917492,237.491210C98.493077,163.584292,124.683624,96.401224,137.782857,71.739185ZM552.887574,60.611965C550.828445,56.089799,546.187483,53.254536,541.221812,53.254536L513.170130,53.254536C503.682293,53.254536,497.599941,63.280914,502.066668,71.667908C516.536015,98.824661,540.414000,166.245321,502.288421,237.372414C497.758335,245.830686,503.713972,255.999619,513.304765,255.999619L541.205973,255.999619C546.171644,255.999619,550.812605,253.164355,552.871735,248.642190C565.963048,219.949009,573.431354,188.175053,573.431354,154.627077C573.431354,121.079102,565.970968,89.305146,552.887574,60.611965ZM453.890952,103.940807L427.177703,103.940807C418.458081,103.940807,412.439086,112.517874,415.408985,120.714794C419.313412,131.469787,421.388381,142.874198,421.388381,154.627077C421.388381,166.379956,419.313412,177.784367,415.408985,188.539360C412.431166,196.736281,418.458081,205.313348,427.177703,205.313348L453.890952,205.313348C459.450602,205.313348,464.550908,201.757389,466.095256,196.411572C469.975923,182.971790,472.058812,168.977628,472.058812,154.627077C472.058812,140.276527,469.968003,126.282364,466.087336,112.842583C464.550908,107.496765,459.442683,103.940807,453.890952,103.940807ZM361.784494,183.233141C367.367904,175.083739,370.654592,165.247435,370.654592,154.627077C370.654592,126.630832,347.980405,103.940807,320,103.940807C292.027514,103.940807,269.345408,126.630832,269.345408,154.627077C269.345408,165.247435,272.632096,175.083739,278.215506,183.233141L174.863032,431.445393C172.170324,437.899973,175.227339,445.320759,181.681919,448.013468L205.053042,457.762655C211.507621,460.455363,218.928408,457.398347,221.613197,450.943768L260.570348,357.372160L379.421733,357.372160L418.386803,450.943768C421.079511,457.406267,428.492379,460.455363,434.946958,457.762655L458.318081,448.013468C464.772661,445.320759,467.821757,437.899973,465.136968,431.445393L361.784494,183.233141ZM281.684347,306.685889L320,214.666549L358.315653,306.685889L281.684347,306.685889Z" transform="translate(-320,-255.998367)" fill="rgb(3,82,70)" stroke="none" stroke-width="1"/></g></g></svg>